<mxfile host="65bd71144e" modified="2023-06-29T13:30:08.187Z" agent="Mozilla/5.0 (Macintosh; Intel Mac OS X 13_4_0) AppleWebKit/537.36 (KHTML, like Gecko) Code/1.79.2 Chrome/108.0.5359.215 Electron/22.5.7 Safari/537.36" etag="468Uc8Mqbr7ixGvdyeNp" version="21.5.2" type="embed">
    <diagram id="3EUH75zWSMYmcWt198lO" name="Page-1">
        <mxGraphModel dx="435" dy="520" grid="1" gridSize="10" guides="1" tooltips="1" connect="1" arrows="1" fold="1" page="1" pageScale="1" pageWidth="850" pageHeight="1100" background="#ffffff" math="0" shadow="0">
            <root>
                <mxCell id="0"/>
                <mxCell id="1" parent="0"/>
                <mxCell id="12" value="" style="triangle;whiteSpace=wrap;html=1;rotation=-90;fillColor=#60A917;fontColor=#ffffff;strokeColor=none;opacity=50;labelBackgroundColor=none;labelPosition=center;verticalLabelPosition=middle;align=center;verticalAlign=middle;horizontal=0;" parent="1" vertex="1">
                    <mxGeometry x="283.13" y="65.63" width="150" height="253.75" as="geometry"/>
                </mxCell>
                <mxCell id="2" value="&lt;font size=&quot;1&quot; style=&quot;&quot;&gt;&lt;b style=&quot;font-size: 16px;&quot;&gt;Source Code Repository&lt;/b&gt;&lt;/font&gt;" style="rounded=0;whiteSpace=wrap;html=1;strokeColor=#000000;fontColor=#000000;fillColor=#CCCCCC;strokeWidth=2;" parent="1" vertex="1">
                    <mxGeometry x="280" y="120" width="160" height="60" as="geometry"/>
                </mxCell>
                <mxCell id="6" style="edgeStyle=none;html=1;entryX=0.25;entryY=1;entryDx=0;entryDy=0;startArrow=classic;startFill=1;exitX=0.5;exitY=0;exitDx=0;exitDy=0;strokeColor=#000000;fontColor=#000000;" parent="1" source="3" target="2" edge="1">
                    <mxGeometry relative="1" as="geometry"/>
                </mxCell>
                <mxCell id="10" style="edgeStyle=none;html=1;exitX=1;exitY=0.5;exitDx=0;exitDy=0;entryX=0;entryY=0.5;entryDx=0;entryDy=0;strokeColor=#000000;startArrow=classic;startFill=1;" parent="1" source="3" target="5" edge="1">
                    <mxGeometry relative="1" as="geometry"/>
                </mxCell>
                <mxCell id="3" value="Developer" style="rounded=1;whiteSpace=wrap;html=1;strokeColor=#000000;fontColor=#000000;fillColor=#FFFFFF;strokeWidth=1;" parent="1" vertex="1">
                    <mxGeometry x="230" y="240" width="70" height="40" as="geometry"/>
                </mxCell>
                <mxCell id="8" style="edgeStyle=none;html=1;exitX=0.5;exitY=0;exitDx=0;exitDy=0;entryX=0.75;entryY=1;entryDx=0;entryDy=0;startArrow=classic;startFill=1;strokeColor=#000000;fontColor=#000000;" parent="1" source="5" target="2" edge="1">
                    <mxGeometry relative="1" as="geometry"/>
                </mxCell>
                <mxCell id="5" value="Developer" style="rounded=1;whiteSpace=wrap;html=1;strokeColor=#000000;fontColor=#000000;fillColor=#FFFFFF;strokeWidth=1;" parent="1" vertex="1">
                    <mxGeometry x="420" y="240" width="70" height="40" as="geometry"/>
                </mxCell>
                <mxCell id="13" value="&lt;p style=&quot;line-height: 120%;&quot;&gt;&lt;font style=&quot;font-size: 14px; background-color: rgb(255, 255, 255);&quot;&gt;Revised Source Code Repositories&lt;/font&gt;&lt;/p&gt;" style="text;html=1;strokeColor=none;fillColor=none;align=center;verticalAlign=middle;whiteSpace=wrap;rounded=0;fontColor=#000000;labelBackgroundColor=none;" parent="1" vertex="1">
                    <mxGeometry x="298.75" y="210" width="122.5" height="30" as="geometry"/>
                </mxCell>
            </root>
        </mxGraphModel>
    </diagram>
</mxfile>